{"title":"BUGS BUNNYS-CUPID CAPERS IN MP4 AAC H.264 BY WINKER","uid":5354474,"size":362421093,"categoryP":"video","categoryS":"tv_shows","magnet":"?xt=urn:btih:ea9993d43c91cec5c78d60f375c419a6cc5fa496&amp;dn=BUGS+BUNNYS-CUPID+CAPERS+IN+MP4+AAC+H.264+BY+WINKER&amp;tr=udp%3A%2F%2Ftracker.openbittorrent.com%3A80&amp;tr=udp%3A%2F%2Fopen.demonii.com%3A1337&amp;tr=udp%3A%2F%2Ftracker.coppersurfer.tk%3A6969&amp;tr=udp%3A%2F%2Fexodus.desync.com%3A6969","seeders":0,"leechers":2,"uploader":"alanwatson","files":-1,"time":1265847677,"description":"On this DVD are legendary cartoon classics including Hare Trimmed (1953), The Grey-Hounded Hare (1948), Little Beau Pepe (1952), The Super Snooper (1952), Rabbit Romeo (1957), Wild Over You (1953), Of Rice and Hen (1953) and Devil May Hare (1953)\n\nFormat : MPEG-4\nFormat profile : Base Media / Version 2\nCodec\nID : mp42\nFile size : 346 MiB\nDuration : 23mn 9s\nOverall bit rate : 2 086 Kbps\nEncoded date : UTC 2010-02-11 06:58:00\nTagged date : UTC 2010-02-11 08:30:13\nWriting application : HandBrake 0.9.3 2008112300\n\nVideo\nID : 1\nFormat : AVC\nFormat/Info : Advanced Video Codec\nFormat profile : &lt;a class=&quot;__cf_email__&quot; href=&quot;/cdn-cgi/l/email-protection&quot; data-cfemail=&quot;5518343c3b1519617b65&quot;&gt;[email&amp;#160;protected]&lt;/a&gt;&lt;script cf-hash='f9e31' type=&quot;text/javascript&quot;&gt;\n/* &lt;![CDATA[ */!function(){try{var t=&quot;currentScript&quot;in document?document.currentScript:function(){for(var t=document.getElementsByTagName(&quot;script&quot;),e=t.length;e--;)if(t[e].getAttribute(&quot;cf-hash&quot;))return t[e]}();if(t&amp;&amp;t.previousSibling){var e,r,n,i,c=t.previousSibling,a=c.getAttribute(&quot;data-cfemail&quot;);if(a){for(e=&quot;&quot;,r=parseInt(a.substr(0,2),16),n=2;a.length-n;n+=2)i=parseInt(a.substr(n,2),16)^r,e+=String.fromCharCode(i);e=document.createTextNode(e),c.parentNode.replaceChild(e,c)}}}catch(u){}}();/* ]]&gt; */&lt;/script&gt;\nFormat settings, CABAC : Yes\nFormat settings, ReFrames : 3 frames\nCodec ID : avc1\nCodec ID/Info : Advanced Video Coding\nDuration : 23mn 9s\nBit rate mode : Variable\nBit rate : 2 000 Kbps\nWidth : 716 pixels\nHeight : 576 pixels\nDisplay aspect ratio : 4:3\nFrame rate mode : Variable\nFrame rate : 25.000 fps\nMinimum frame rate : 12.500 fps\nMaximum frame rate : 25.000 fps\nResolution : 8 bits\nColorimetry : 4:2:0\nScan type : Progressive\nBits/(Pixel*Frame) : 0.194\nStream size : 331 MiB (96%)\nWriting library : x264 core 65\n\nLanguage : English\nEncoded date : UTC 2010-02-11 06:58:01\nTagged date : UTC 2010-02-11 08:30:12\nColor primaries : BT.601-6 525, BT.1358 525, BT.1700 NTSC, SMPTE 170M\nTransfer characteristics : BT.709-5, BT.1361\nMatrix coefficients : BT.601-6 525, BT.1358 525, BT.1700 NTSC, SMPTE 170M\n\nAudio\nID : 2\nFormat : AAC\nFormat/Info : Advanced Audio Codec\nFormat version : Version 4\nFormat profile : LC\nFormat settings, SBR : No\nFormat settings, PS : Yes\nCodec ID : 40\nDuration : 23mn 9s\nBit rate mode : Variable\nBit rate : 82.6 Kbps\nMaximum bit rate : 101 Kbps\nChannel(s) : 2 channels\nChannel positions : Front: L R\nSampling rate : 48.0 KHz\nStream size : 13.7 MiB (4%)\nLanguage : English\nEncoded date : UTC 2010-02-11 06:58:01\nTagged date : UTC 2010-02-11 08:30:06","torrent":{"xt":"urn:btih:ea9993d43c91cec5c78d60f375c419a6cc5fa496","amp;dn":"BUGS+BUNNYS-CUPID+CAPERS+IN+MP4+AAC+H.264+BY+WINKER","amp;tr":["udp%3A%2F%2Ftracker.openbittorrent.com%3A80","udp%3A%2F%2Fopen.demonii.com%3A1337","udp%3A%2F%2Ftracker.coppersurfer.tk%3A6969","udp%3A%2F%2Fexodus.desync.com%3A6969"],"infoHash":"ea9993d43c91cec5c78d60f375c419a6cc5fa496","infoHashBuffer":{"type":"Buffer","data":[234,153,147,212,60,145,206,197,199,141,96,243,117,196,25,166,204,95,164,150]},"announce":[],"urlList":[]}}